<svg id="layer" xmlns="http://www.w3.org/2000/svg" viewBox="0 0 16 16"><defs><style>.cls-1{fill:#666;}.cls-2{fill:none;}.cls-3{fill:#fa0;}.cls-4{opacity:0.1;}.cls-5{fill:#996b2e;}</style></defs><title>Clean</title><path class="cls-1" d="M6.42,4.6A2.3,2.3,0,0,1,7,6.28V11H6L6,10.16A2.54,2.54,0,0,1,4.05,11a2.35,2.35,0,0,1-1-.23,1.89,1.89,0,0,1-.75-.65,1.8,1.8,0,0,1-.28-1V8.68a1.66,1.66,0,0,1,.69-1.39,3,3,0,0,1,1.89-.53H6V6.25a1.4,1.4,0,0,0-.48-1A1.18,1.18,0,0,0,4.61,5a3.38,3.38,0,0,0-.93.12,5,5,0,0,0-.92.4l-.38-.84A4.31,4.31,0,0,1,4.7,4,2.29,2.29,0,0,1,6.42,4.6ZM5.1,9.82A2.74,2.74,0,0,0,6,9.2V7.57l-1.34.06a1.82,1.82,0,0,0-1.11.29,1,1,0,0,0-.37.84V9a.93.93,0,0,0,.28.71,1.09,1.09,0,0,0,.77.26A2,2,0,0,0,5.1,9.82Z"/><rect class="cls-2" width="16" height="16"/><polygon class="cls-3" points="14 14 7 14 9 10 12 10 14 14"/><path class="cls-4" d="M11.38,11l1,2H8.62l1-2h1.76M12,10H9L7,14h7l-2-4Z"/><polygon class="cls-5" points="11.8 9 9.2 9 10 7 10 2 11 2 11 7 11.8 9"/></svg>