<?xml version="1.0" encoding="UTF-8"?>
<svg width="16px" height="16px" viewBox="0 0 16 16" version="1.1" xmlns="http://www.w3.org/2000/svg" xmlns:xlink="http://www.w3.org/1999/xlink">
    <!-- Generator: Sketch 61 (89581) - https://sketch.com -->
    <title>16</title>
    <desc>Created with Sketch.</desc>
    <g id="16" stroke="none" stroke-width="1" fill="none" fill-rule="evenodd">
        <path d="M14.52,8.45 L12.8,7.45 L12.22,9.45 C11.7141231,9.49000694 11.2058769,9.49000694 10.7,9.45 L10.13,7.45 L8.4,8.45 C8.05130738,8.18127091 7.73872909,7.86869262 7.47,7.52 L8.47,5.8 L6.47,5.22 C6.42999306,4.71412308 6.42999306,4.20587692 6.47,3.7 L7.35,3.45 L7,3 L1,3 L1,15 L15,15 L15,8 C14.8504587,8.16078006 14.6900836,8.31113171 14.52,8.45 Z" id="Path" fill="#F3F3F3" fill-rule="nonzero"></path>
        <rect id="Rectangle" x="0" y="0" width="16" height="16"></rect>
        <path d="M10.5,13 L10.5,9.5 L11.5,9.5 C12.1666667,9.5 12.5,9.83333333 12.5,10.5 C12.5,11.1666667 12.1666667,11.5 11.5,11.5 L10.5,11.5" id="Path-2" stroke="#666666"></path>
        <path d="M9,9.5 L7.5,9.5 C6.83333333,9.5 6.5,9.83333333 6.5,10.5 C6.5,11 8.5,11 8.5,11.5 C8.5,12.1666667 8.16666667,12.5 7.5,12.5 L6,12.5" id="Path-3" stroke="#666666"></path>
        <polyline id="Path-4" stroke="#666666" points="3.5 9 3.5 12.5 5 12.5"></polyline>
        <path d="M14.52,8.45 L14,8.15 L14,14 L2,14 L2,7 L7.41,7 L8.25,6.16 L8.46,5.8 L7.46,5.51 L7,6 L2,6 L2,4 L6.47,4 C6.46248942,3.90014102 6.46248942,3.79985898 6.47,3.7 L7.35,3.45 L7,3 L1,3 L1,15 L15,15 L15,8 C14.8504587,8.16078006 14.6900836,8.31113171 14.52,8.45 Z" id="Path" fill="#666666" fill-rule="nonzero"></path>
        <polygon id="Path" fill="#FFAA00" points="13.22 5.32 16 4.5 13.22 3.68 14.41 1.59 12.32 2.78 11.5 0 10.68 2.78 8.59 1.59 9.78 3.68 7 4.5 9.78 5.32 8.59 7.41 10.68 6.22 11.5 9 12.32 6.22 14.41 7.41"></polygon>
        <rect id="Rectangle-Copy-5" fill="#D8D8D8" opacity="0" x="0" y="0" width="16" height="16"></rect>
    </g>
</svg>