<svg id="layer" xmlns="http://www.w3.org/2000/svg" viewBox="0 0 16 16"><defs><style>.cls-1{fill:#f3f3f3;}.cls-2{fill:none;}.cls-3{fill:#666;}.cls-4{fill:#fa0;fill-rule:evenodd;}</style></defs><title>Creat Project</title><path class="cls-1" d="M14.52,8.45l-1.72-1-.58,2a9.64,9.64,0,0,1-1.52,0l-.57-2-1.73,1a5.12,5.12,0,0,1-.93-.93l1-1.72-2-.58a9.64,9.64,0,0,1,0-1.52l.88-.25L7,3H1V15H15V8A4.81,4.81,0,0,1,14.52,8.45Z"/><rect class="cls-2" width="16" height="16"/><path class="cls-3" d="M5.46,12.3V13H3V9h.76v3.3Z"/><path class="cls-3" d="M6,12.5l.36-.41.34.2A.93.93,0,0,0,7,12.4a1.75,1.75,0,0,0,.43,0,1.13,1.13,0,0,0,.63-.16.48.48,0,0,0,.21-.38v-.07a.42.42,0,0,0-.13-.33,1.18,1.18,0,0,0-.48-.23l-.58-.19c-.62-.2-.94-.52-.94-1V10a.81.81,0,0,1,.17-.49,1.18,1.18,0,0,1,.49-.37A2,2,0,0,1,7.58,9a2.13,2.13,0,0,1,.78.13A2,2,0,0,1,9,9.5l-.35.38a2.08,2.08,0,0,0-.5-.27,1.39,1.39,0,0,0-.52-.08.9.9,0,0,0-.54.13.38.38,0,0,0-.19.32v.09a.34.34,0,0,0,.15.27,1.35,1.35,0,0,0,.48.22l.53.17a1.77,1.77,0,0,1,.71.38.86.86,0,0,1,.25.66v.14a.87.87,0,0,1-.19.57,1.2,1.2,0,0,1-.54.38,1.94,1.94,0,0,1-.78.14A2.16,2.16,0,0,1,6,12.5Z"/><path class="cls-3" d="M12.3,9.17l-.08.26a9.64,9.64,0,0,1-1.52,0L10.58,9H10v4h.79V11.63h.55a2.07,2.07,0,0,0,1.21-.31,1,1,0,0,0,.45-.85v-.33a1,1,0,0,0-.42-.84A1.43,1.43,0,0,0,12.3,9.17Zm-.09,1.26c0,.43-.3.65-.9.65h-.52V9.55h.62a.94.94,0,0,1,.59.16.54.54,0,0,1,.21.47Z"/><path class="cls-3" d="M14.52,8.45,14,8.15V14H2V7H7.41l.84-.84.21-.36-1-.29L7,6H2V4H6.47a2,2,0,0,1,0-.3l.88-.25L7,3H1V15H15V8A4.81,4.81,0,0,1,14.52,8.45Z"/><polygon class="cls-4" points="13.22 5.32 16 4.5 13.22 3.68 14.41 1.59 12.32 2.78 11.5 0 10.68 2.78 8.59 1.59 9.78 3.68 7 4.5 9.78 5.32 8.59 7.41 10.68 6.22 11.5 9 12.32 6.22 14.41 7.41 13.22 5.32"/></svg>