<svg id="layer" xmlns="http://www.w3.org/2000/svg" viewBox="0 0 16 16"><defs><style>.cls-1{fill:#f3f3f3;}.cls-2{fill:#666;}.cls-3{fill:#fcbe02;}.cls-4{fill:#e2ab02;}.cls-5{fill-rule:evenodd;}.cls-6{fill:#fff;}.cls-7{fill:none;}</style></defs><title>Error LISP File</title><path class="cls-1" d="M6.61,10H6.54a1.53,1.53,0,0,1-1.31-.72,1.62,1.62,0,0,1,0-1.63L8.05,2H2V14H12V10Z"/><polygon class="cls-2" points="12 9.99 12 14 2 14 2 2 8.05 2 8.55 1 1 1 1 15 13 15 13 9.99 12 9.99"/><path class="cls-3" d="M14.4,9H6.58c-.28,0-.8-.23-.48-.9L10,.34c.28-.47.69-.45,1,0,1,1.89,3.06,6,3.94,7.8A.52.52,0,0,1,14.4,9Z"/><path class="cls-4" d="M10.48,1.62,13.7,8H7.27l3.21-6.37m0-1.62A.59.59,0,0,0,10,.34L6.1,8.09c-.31.64.16.9.44.9H14.4a.52.52,0,0,0,.5-.83C14,6.4,11.92,2.25,11,.36A.59.59,0,0,0,10.47,0Z"/><path class="cls-5" d="M10.33,2.7h.36a.79.79,0,0,1,.37.41l-.27,2.68c0,.12-.07.21-.14.21h-.28c-.07,0-.13-.09-.13-.21L10,3.11A.79.79,0,0,1,10.33,2.7Z"/><circle cx="10.5" cy="7.5" r="0.5"/><path class="cls-2" d="M6.61,10H6.54a1.53,1.53,0,0,1-1.31-.72A1.13,1.13,0,0,1,5.09,9H1v6H13V10Z"/><path class="cls-6" d="M4.46,13.3V14H2V10h.76v3.3Z"/><path class="cls-6" d="M5,13.5l.36-.41.34.2A.93.93,0,0,0,6,13.4a1.75,1.75,0,0,0,.43,0,1.13,1.13,0,0,0,.63-.16.48.48,0,0,0,.21-.38v-.07a.42.42,0,0,0-.13-.33,1.18,1.18,0,0,0-.48-.23l-.58-.19c-.62-.2-.94-.52-.94-1V11a.81.81,0,0,1,.17-.49,1.18,1.18,0,0,1,.49-.37A2,2,0,0,1,6.58,10a2.13,2.13,0,0,1,.78.13A2,2,0,0,1,8,10.5l-.35.38a2.08,2.08,0,0,0-.5-.27,1.39,1.39,0,0,0-.52-.08.9.9,0,0,0-.54.13.38.38,0,0,0-.19.32v.09a.34.34,0,0,0,.15.27,1.35,1.35,0,0,0,.48.22l.53.17a1.77,1.77,0,0,1,.71.38.86.86,0,0,1,.25.66v.14a.87.87,0,0,1-.19.57,1.2,1.2,0,0,1-.54.38,1.94,1.94,0,0,1-.78.14A2.16,2.16,0,0,1,5,13.5Z"/><path class="cls-6" d="M11.58,10.3a1,1,0,0,1,.42.84v.33a1,1,0,0,1-.45.85,2.07,2.07,0,0,1-1.21.31H9.79V14H9V10h1.44A1.93,1.93,0,0,1,11.58,10.3Zm-.37.88a.54.54,0,0,0-.21-.47.94.94,0,0,0-.59-.16H9.79v1.53h.52c.6,0,.9-.22.9-.64Z"/><rect class="cls-7" width="16" height="16"/><rect class="cls-7" width="16" height="16"/></svg>