<?xml version="1.0" encoding="UTF-8"?>
<svg width="16px" height="16px" viewBox="0 0 16 16" version="1.1" xmlns="http://www.w3.org/2000/svg" xmlns:xlink="http://www.w3.org/1999/xlink">
    <!-- Generator: Sketch 61 (89581) - https://sketch.com -->
    <title>16</title>
    <desc>Created with Sketch.</desc>
    <g id="16" stroke="none" stroke-width="1" fill="none" fill-rule="evenodd">
        <polygon id="Path" fill="#F3F3F3" fill-rule="nonzero" points="2 2 2 14 12 14 12 2"></polygon>
        <polygon id="Path" fill="#666666" fill-rule="nonzero" points="12 14 2 14 2 2 9.05 2 9.55 1 1 1 1 15 13 15 13 8 12 8"></polygon>
        <path d="M14.5355887,6.99495925 C14.5355887,6.99495925 12.5101637,6.99495925 8.45931373,6.99495925 C8.24174889,6.99495925 7.83769992,6.8161705 8.08634544,6.29535109 L11.1167128,0.263174055 C11.3342776,-0.102176874 11.6528547,-0.0866300257 11.89373,0.263174055 C12.6707473,1.73235119 14.2714028,4.92722846 14.955178,6.32644478 C15.0795795,6.5810088 15.0017991,6.99495925 14.5355887,6.99495925 Z" id="Path" fill="#FCBE02" fill-rule="nonzero"></path>
        <polygon id="Path-12" fill="#000000" points="11 1 11 4 12 4 12 1"></polygon>
        <polygon id="Path-12-Copy" fill="#000000" points="11 5 11 6 12 6 12 5"></polygon>
        <rect id="Rectangle" fill="#666666" x="2" y="9" width="10" height="5"></rect>
        <path d="M9.5,14 L9.5,10.5 L10.5,10.5 C11.1666667,10.5 11.5,10.8333333 11.5,11.5 C11.5,12.1666667 11.1666667,12.5 10.5,12.5 L9.5,12.5" id="Path-2" stroke="#FFFFFF"></path>
        <path d="M8,10.5 L6.5,10.5 C5.83333333,10.5 5.5,10.8333333 5.5,11.5 C5.5,12 7.5,12 7.5,12.5 C7.5,13.1666667 7.16666667,13.5 6.5,13.5 L5,13.5" id="Path-3" stroke="#FFFFFF"></path>
        <polyline id="Path-4" stroke="#FFFFFF" points="2.5 10 2.5 13.5 4 13.5"></polyline>
        <rect id="Rectangle-Copy" fill="#D8D8D8" opacity="0" x="0" y="0" width="16" height="16"></rect>
    </g>
</svg>