<svg id="layer" xmlns="http://www.w3.org/2000/svg" viewBox="0 0 16 16"><defs><style>.cls-1{fill:#f3f3f3;}.cls-2{fill:#67b1e6;}.cls-3{opacity:0.2;}.cls-4{fill:#333;}.cls-5{fill:none;}.cls-6{fill:#666;}</style></defs><title>Hide Path</title><rect class="cls-1" x="8" y="6" width="6" height="5"/><rect class="cls-2" x="1" y="1" width="6" height="5"/><g class="cls-3"><path d="M6,2V5H2V2H6M7,1H1V6H7V1Z"/></g><polygon class="cls-4" points="5 13 14 13 14 14 5 14 5 15 2.4 13.5 5 12 5 13"/><rect class="cls-5" width="16" height="16"/><path class="cls-6" d="M8,6v5h6V6Zm5,4H9V7h4Z"/><polygon class="cls-6" points="5 8 5 6 4 6 4 9 8 9 8 8 5 8"/></svg>