<svg id="layer" xmlns="http://www.w3.org/2000/svg" viewBox="0 0 16 16"><defs><style>.cls-1{fill:none;}.cls-2{fill:#666;}.cls-3{fill:#178fe6;}</style></defs><title>Match Whole Word Off</title><rect class="cls-1" width="16" height="16"/><path class="cls-2" d="M6.54,5.52A2,2,0,0,1,7,7v3.92H6.23l-.06-.59A2,2,0,0,1,4.64,11a1.62,1.62,0,0,1-.81-.2,1.44,1.44,0,0,1-.6-.55A1.62,1.62,0,0,1,3,9.39V9a1.77,1.77,0,0,1,.55-1.35,2.34,2.34,0,0,1,1.51-.45h1V6.93a1.2,1.2,0,0,0-.23-.82,1,1,0,0,0-.73-.26A2.27,2.27,0,0,0,4.34,6a3.79,3.79,0,0,0-.73.33L3.3,5.57A3.33,3.33,0,0,1,5.16,5,1.74,1.74,0,0,1,6.54,5.52ZM5.48,10a1.63,1.63,0,0,0,.57-.48V8H5.13a1.41,1.41,0,0,0-.89.24A1.27,1.27,0,0,0,4,9.08v.24a.85.85,0,0,0,.22.61.83.83,0,0,0,.62.22A1.52,1.52,0,0,0,5.48,10Z"/><path class="cls-3" d="M12.55,8.6l-2,.3L12,10.07c.29.24.37.52.13.74s-.56.21-.77-.17L10.46,9l-.75,1.67a.47.47,0,0,1-.7.27.44.44,0,0,1,0-.76l1.35-1.27L8.47,8.56C8.1,8.5,7.92,8.26,8,8s.4-.42.74-.2l1.6,1-.32-1.94c-.06-.38.08-.62.41-.62s.51.24.45.62l-.35,1.94,1.66-.94c.34-.2.62-.16.74.15S12.94,8.54,12.55,8.6Z"/></svg>