<svg id="layer" xmlns="http://www.w3.org/2000/svg" viewBox="0 0 16 16"><defs><style>.cls-1{fill:none;}.cls-2{fill:#f3f3f3;}.cls-3{fill:#666;}.cls-4{fill:#333;}</style></defs><title>Open Project</title><rect class="cls-1" width="16" height="16"/><path class="cls-2" d="M15,6,13.13,9.27a3,3,0,0,0-.69-.07H10.2v.47a2.48,2.48,0,0,0-.56-.29A3,3,0,0,0,8.58,9.2a2.83,2.83,0,0,0-1.07.2,1.85,1.85,0,0,0-.82.62,1.58,1.58,0,0,0-.33,1v.12a1.65,1.65,0,0,0,.57,1.25l-.12.14H5.56V9.2H3.2V13H0V2H6L7.33,4H12L11,6Z"/><path class="cls-3" d="M12,6V4H7.33L6,2H0V13H3.2V12H1.62l3-5h8.76L12.06,9.2h.38a3,3,0,0,1,.69.07L15,6ZM11,6H4L1,11V3H5.46L6.8,5H11Z"/><polygon class="cls-3" points="3.3 9.2 3.2 9.37 3.2 9.2 3.3 9.2"/><path class="cls-3" d="M6.46,13.3V14H4V10h.76v3.3Z"/><path class="cls-3" d="M7,13.5l.36-.41.34.2A.93.93,0,0,0,8,13.4a1.75,1.75,0,0,0,.43,0,1.13,1.13,0,0,0,.63-.16.48.48,0,0,0,.21-.38v-.07a.42.42,0,0,0-.13-.33,1.18,1.18,0,0,0-.48-.23l-.58-.19c-.62-.2-.94-.52-.94-1V11a.81.81,0,0,1,.17-.49,1.18,1.18,0,0,1,.49-.37A2,2,0,0,1,8.58,10a2.13,2.13,0,0,1,.78.13,2,2,0,0,1,.62.37l-.35.38a2.08,2.08,0,0,0-.5-.27,1.39,1.39,0,0,0-.52-.08.9.9,0,0,0-.54.13.38.38,0,0,0-.19.32v.09a.34.34,0,0,0,.15.27,1.35,1.35,0,0,0,.48.22l.53.17a1.77,1.77,0,0,1,.71.38.86.86,0,0,1,.25.66v.14a.87.87,0,0,1-.19.57,1.2,1.2,0,0,1-.54.38,1.94,1.94,0,0,1-.78.14A2.16,2.16,0,0,1,7,13.5Z"/><path class="cls-3" d="M13.58,10.3a1,1,0,0,1,.42.84v.33a1,1,0,0,1-.45.85,2.07,2.07,0,0,1-1.21.31h-.55V14H11V10h1.44A1.93,1.93,0,0,1,13.58,10.3Zm-.37.88a.54.54,0,0,0-.21-.47.94.94,0,0,0-.59-.16h-.62v1.53h.52c.6,0,.9-.22.9-.64Z"/><path class="cls-4" d="M13.83,2.79a3.62,3.62,0,0,0-2.17-1.55A4.84,4.84,0,0,0,8.2,2.1l.6.8a3.83,3.83,0,0,1,2.65-.68,2.55,2.55,0,0,1,1.47,1l-.9.43,2.45,1.7.25-3Z"/></svg>