<?xml version="1.0" encoding="UTF-8"?>
<svg width="16px" height="16px" viewBox="0 0 16 16" version="1.1" xmlns="http://www.w3.org/2000/svg" xmlns:xlink="http://www.w3.org/1999/xlink">
    <!-- Generator: Sketch 61 (89581) - https://sketch.com -->
    <title>16</title>
    <desc>Created with Sketch.</desc>
    <g id="16" stroke="none" stroke-width="1" fill="none" fill-rule="evenodd">
        <polygon id="Path" fill="#F3F3F3" fill-rule="nonzero" points="16 6 12.5 13 1 13 1 2 7 2 8.33 4 13 4 12 6"></polygon>
        <path d="M13,6 L13,4 L8.33,4 L7,2 L1,2 L1,13 L4,13 L4,12 L2.62,12 L5.62,7 L14.38,7 L13,10 L14,10 L16,6 L13,6 Z M12,6 L5,6 L2,11 L2,3 L6.46,3 L7.8,5 L12,5 L12,6 Z" id="Shape" fill="#666666" fill-rule="nonzero"></path>
        <path d="M14.83,2.5931305 C14.3302584,1.81915443 13.5542179,1.26483982 12.66,1.0431305 C11.4392526,0.879090561 10.2018881,1.18664359 9.2,1.9031305 L9.8,2.7031305 C10.5694913,2.15794222 11.5130738,1.9158154 12.45,2.0231305 C13.0440981,2.16932186 13.5658315,2.52424253 13.92,3.0231305 L13.02,3.4531305 L15.47,5.1531305 L15.72,2.1531305 L14.83,2.5931305 Z" id="Path" fill="#333333" fill-rule="nonzero"></path>
        <path d="M12.5,15 L12.5,11.5 L13.5,11.5 C14.1666667,11.5 14.5,11.8333333 14.5,12.5 C14.5,13.1666667 14.1666667,13.5 13.5,13.5 L12.5,13.5" id="Path-2" stroke="#666666"></path>
        <path d="M11,11.5 L9.5,11.5 C8.83333333,11.5 8.5,11.8333333 8.5,12.5 C8.5,13 10.5,13 10.5,13.5 C10.5,14.1666667 10.1666667,14.5 9.5,14.5 L8,14.5" id="Path-3" stroke="#666666"></path>
        <polyline id="Path-4" stroke="#666666" points="5.5 11 5.5 14.5 7 14.5"></polyline>
        <rect id="Rectangle-Copy-6" fill="#D8D8D8" opacity="0" x="0" y="0" width="16" height="16"></rect>
    </g>
</svg>