<?xml version="1.0" encoding="UTF-8"?>
<svg width="16px" height="16px" viewBox="0 0 16 16" version="1.1" xmlns="http://www.w3.org/2000/svg" xmlns:xlink="http://www.w3.org/1999/xlink">
    <!-- Generator: Sketch 61 (89581) - https://sketch.com -->
    <title>Artboard Copy</title>
    <desc>Created with Sketch.</desc>
    <g id="Artboard-Copy" stroke="none" stroke-width="1" fill="none" fill-rule="evenodd">
        <polygon id="Path" fill="#F3F3F3" points="14 6 7 6 7 13 1 13 1 2 6 2 7 3 14 3"></polygon>
        <polyline id="Path-9" stroke="#666666" points="14.5 6 14.5 2.5 6.5 2.5 5.5 1.5 0.5 1.5 0.5 13.5 7 13.5"></polyline>
        <polyline id="Path-10" stroke="#666666" points="1 3.5 5.5 3.5 6.5 2.5"></polyline>
        <polygon id="Path-11" fill="#666666" points="16 7 8 7 8 14 9 15 16 15"></polygon>
        <rect id="Rectangle" fill="#F3F3F3" x="10" y="8" width="4" height="2"></rect>
        <polygon id="Path-12" fill="#F3F3F3" points="10 12 10 14 11 14 11 13 12 13 12 14 14 14 14 12"></polygon>
    </g>
</svg>