<svg id="layer" xmlns="http://www.w3.org/2000/svg" viewBox="0 0 16 16"><defs><style>.cls-1{fill:none;}.cls-2{fill:#666;}</style></defs><title>Regular Expression On</title><rect class="cls-1" width="16" height="16"/><polygon class="cls-2" points="14 13 13 13 15 3 16 3 14 13"/><polygon class="cls-2" points="1 13 0 13 2 3 3 3 1 13"/><path class="cls-2" d="M7,5.11v1a4,4,0,0,0-.5,0,1.42,1.42,0,0,0-.89.29,2,2,0,0,0-.61,1V11H4V5h.79L5,6.07a1.65,1.65,0,0,1,.59-.81A1.48,1.48,0,0,1,6.37,5,1.81,1.81,0,0,1,7,5.11Z"/><path class="cls-2" d="M9,8c0,.67-.07,1.2.27,1.56a1.76,1.76,0,0,0,1.4.52,3,3,0,0,0,1.64-.53l.43.8a3.71,3.71,0,0,1-.91.47,3.22,3.22,0,0,1-2.56-.17,2.42,2.42,0,0,1-.95-1A3.62,3.62,0,0,1,8,8a3.57,3.57,0,0,1,.31-1.65,2.45,2.45,0,0,1,.89-1A2.5,2.5,0,0,1,10.55,5a2.19,2.19,0,0,1,1.8.72A2.68,2.68,0,0,1,13,7.46,3.54,3.54,0,0,1,13,8S9,8,9,8Zm.33-1.68,0,0a1.54,1.54,0,0,0-.3.95l3.16,0V7.25A1.65,1.65,0,0,0,9.33,6.32Z"/></svg>