<svg id="layer" xmlns="http://www.w3.org/2000/svg" viewBox="0 0 16 16"><defs><style>.cls-1{fill:#333;}.cls-2{fill:#666;}.cls-3{fill:#178fe6;}.cls-4{fill:none;}</style></defs><title>Replace</title><polygon class="cls-1" points="13 4 13 2 8 2 8 3 12 3 12 4 11 4 12.5 6.6 14 4 13 4"/><polygon class="cls-1" points="3 12 3 14 8 14 8 13 4 13 4 12 5 12 3.5 9.4 2 12 3 12"/><path class="cls-2" d="M5.42,1.6A2.3,2.3,0,0,1,6,3.28V8H5L5,7.16A2.54,2.54,0,0,1,3.05,8a2.35,2.35,0,0,1-1-.23,1.89,1.89,0,0,1-.75-.65,1.8,1.8,0,0,1-.28-1V5.68a1.66,1.66,0,0,1,.69-1.39,3,3,0,0,1,1.89-.53H5V3.25a1.4,1.4,0,0,0-.48-1A1.18,1.18,0,0,0,3.61,2a3.38,3.38,0,0,0-.93.12,5,5,0,0,0-.92.4l-.38-.84A4.31,4.31,0,0,1,3.7,1,2.29,2.29,0,0,1,5.42,1.6ZM4.1,6.82A2.74,2.74,0,0,0,5,6.2V4.57l-1.34.06a1.82,1.82,0,0,0-1.11.29,1,1,0,0,0-.37.84V6a.93.93,0,0,0,.28.71A1.09,1.09,0,0,0,3.23,7,2,2,0,0,0,4.1,6.82Z"/><path class="cls-3" d="M13.92,9.38a2.38,2.38,0,0,1,.8,1A4,4,0,0,1,15,12h0a3.58,3.58,0,0,1-.33,1.54,2.73,2.73,0,0,1-.88,1.09,2.13,2.13,0,0,1-1.25.39A2,2,0,0,1,11,14.29l-.09.57H10V6h1V9.63A2.26,2.26,0,0,1,12.72,9,2,2,0,0,1,13.92,9.38Zm0,2.59c0-.72-.2-1.71-1-2a1.7,1.7,0,0,0-1.33.2l-.37.22c-.08,0-.23.11-.23.21v2.81a1.92,1.92,0,0,0,1.42.62,1.27,1.27,0,0,0,1.07-.54A2.58,2.58,0,0,0,13.91,12Z"/><rect class="cls-4" width="16" height="16"/></svg>