<svg id="layer" xmlns="http://www.w3.org/2000/svg" viewBox="0 0 16 16"><defs><style>.cls-1{fill:#f3f3f3;}.cls-2{fill:none;}.cls-3{fill:#666;}</style></defs><title>Save Project</title><polygon class="cls-1" points="6 6 14 6 14 3 7.64 3 6 1 0 1 0 6 0 13 6 13 6 6"/><rect class="cls-2" width="16" height="16"/><path class="cls-3" d="M6,12H1V5H6.41l1-1H13V6h1V3H7.64L6,1H0V13H6ZM1,2H5.53L6.64,3.36,6,4H1Z"/><polygon class="cls-3" points="15 15 8 15 7 14 7 7 15 7 15 15"/><rect class="cls-1" x="9" y="8" width="4" height="2"/><polygon class="cls-1" points="9 12 9 14 10 14 10 13 11 13 11 14 13 14 13 12 9 12"/></svg>