<?xml version="1.0" encoding="UTF-8"?>
<svg width="24px" height="24px" viewBox="0 0 24 24" version="1.1" xmlns="http://www.w3.org/2000/svg" xmlns:xlink="http://www.w3.org/1999/xlink">
    <!-- Generator: Sketch 61 (89581) - https://sketch.com -->
    <title>24</title>
    <desc>Created with Sketch.</desc>
    <g id="24" stroke="none" stroke-width="1" fill="none" fill-rule="evenodd">
        <path d="M0.5,20 C0.5,20.7238576 1.27614237,21.5 2,21.5 C2.3203125,21.5 2.3203125,21.5 3.10546875,21.5 C4.08984375,21.5 4.08984375,21.5 5.40625,21.5 C8.4375,21.5 8.4375,21.5 12,21.5 C15.5625,21.5 15.5625,21.5 18.59375,21.5 C19.9101562,21.5 19.9101562,21.5 20.8945312,21.5 C21.6796875,21.5 21.6796875,21.5 22,21.5 C22.7238576,21.5 23.5,20.7238576 23.5,20 C23.5,19.3125 23.5,19.3125 23.5,17.6875 C23.5,15.75 23.5,15.75 23.5,13.5 C23.5,11.25 23.5,11.25 23.5,9.3125 C23.5,7.6875 23.5,7.6875 23.5,7 C23.5,6.27614237 22.7238576,5.5 22,5.5 C21.40625,5.5 21.40625,5.5 20.15625,5.5 C18.6875,5.5 18.6875,5.5 17,5.5 C15.3125,5.5 15.3125,5.5 13.84375,5.5 C12.59375,5.5 12.59375,5.5 12,5.5 C11.0002566,5.5 10.4818481,5.18895487 9.64644661,4.35355339 C9.33394661,4.04105339 9.33394661,4.04105339 9.14644661,3.85355339 C8.95894661,3.66605339 8.95894661,3.66605339 8.64644661,3.35355339 C7.98184808,2.68895487 7.66692331,2.5 7,2.5 C6,2.5 6,2.5 4.5,2.5 C3,2.5 3,2.5 2,2.5 C1.27614237,2.5 0.5,3.27614237 0.5,4 C0.5,4.78125 0.5,4.78125 0.5,6.78125 C0.5,9.1875 0.5,9.1875 0.5,12 C0.5,14.8125 0.5,14.8125 0.5,17.21875 C0.5,19.21875 0.5,19.21875 0.5,20 Z" id="Path-10" stroke="#666666"></path>
        <line x1="1" y1="9.5" x2="23" y2="9.5" id="Path-11" stroke="#666666"></line>
        <path d="M16.5,15.5 L18,15.5 C19,15.5 19.5,15 19.5,14 C19.5,13 19,12.5 18,12.5 L16.5,12.5 L16.5,19" id="Path-7" stroke="#666666"></path>
        <polyline id="Path-8" stroke="#666666" points="9 18.5 5.5 18.5 5.5 12"></polyline>
        <path d="M14,12.5 C13,12.5 12.3333333,12.5 12,12.5 C11.5,12.5 10.5,12.5 10.5,14 C10.5,15.5 13.5,15.5 13.5,17 C13.5,18.5 12.5,18.5 12,18.5 C11.6666667,18.5 11,18.5 10,18.5" id="Path-6" stroke="#666666"></path>
        <rect id="Rectangle" fill="#D8D8D8" opacity="0" x="0" y="0" width="24" height="24"></rect>
    </g>
</svg>