<?xml version="1.0" encoding="UTF-8"?>
<svg width="24px" height="24px" viewBox="0 0 24 24" version="1.1" xmlns="http://www.w3.org/2000/svg" xmlns:xlink="http://www.w3.org/1999/xlink">
    <!-- Generator: Sketch 61 (89581) - https://sketch.com -->
    <title>Artboard</title>
    <desc>Created with Sketch.</desc>
    <g id="Artboard" stroke="none" stroke-width="1" fill="none" fill-rule="evenodd">
        <polygon id="Path-2" stroke="#7F7F7F" stroke-width="2" points="1 3 9 3 11 5 23 5 23 21 1 21"></polygon>
        <polyline id="Path-3" stroke="#7F7F7F" stroke-width="2" points="11 5 9 7 1 7"></polyline>
        <polygon id="Path-4" fill="#7F7F7F" points="3 9 3 19 7 19 7 17 5 17 5 9"></polygon>
        <path d="M18,9 C19.6568542,9 21,10.3431458 21,12 C21,13.5976809 19.75108,14.9036609 18.1762728,14.9949073 L18,15 L17,15 L17,19 L15,19 L15,9 L18,9 Z M19,12 C19,11.4477153 18.5522847,11 18,11 L17,11 L17,13 L18,13 L18,13 C18.5522847,13 19,12.5522847 19,12 Z" id="Combined-Shape" fill="#7F7F7F"></path>
        <path d="M11,9 C12.5976809,9 13.9036609,10.24892 13.9949073,11.8237272 L14,12 L12,12 C12,11.4477153 11.5522847,11 11,11 C10.4477153,11 10,11.4477153 10,12 C10,12.5522847 10.4477153,13 11,13 L11.1762728,13.0050927 C12.75108,13.0963391 14,14.4023191 14,16 C14,17.6568542 12.6568542,19 11,19 C9.40231912,19 8.09633912,17.75108 8.00509269,16.1762728 L8,16 L10,16 C10,16.5522847 10.4477153,17 11,17 C11.5522847,17 12,16.5522847 12,16 C12,15.4477153 11.5522847,15 11,15 L10.8237272,14.9949073 C9.24891996,14.9036609 8,13.5976809 8,12 C8,10.3431458 9.34314575,9 11,9 Z" id="Combined-Shape" fill="#7F7F7F"></path>
    </g>
</svg>