<?xml version="1.0" encoding="UTF-8"?>
<svg width="16px" height="16px" viewBox="0 0 16 16" version="1.1" xmlns="http://www.w3.org/2000/svg" xmlns:xlink="http://www.w3.org/1999/xlink">
    <!-- Generator: Sketch 61 (89581) - https://sketch.com -->
    <title>16</title>
    <desc>Created with Sketch.</desc>
    <g id="16" stroke="none" stroke-width="1" fill="none" fill-rule="evenodd">
        <polygon id="Path" fill="#D9D9D9" fill-rule="nonzero" points="10 7 10 5 9 5 8 5 8 2 2 2 2 4 2 14 12 14 12 7"></polygon>
        <rect id="Rectangle" x="0" y="0" width="16" height="16"></rect>
        <polygon id="Path" fill="#D9D9D9" fill-rule="nonzero" points="12 14 2 14 2 2 8 2 8 1 1 1 1 15 13 15 13 7 12 7"></polygon>
        <polygon id="Path" fill="#62D987" points="15 2 13 2 13 0 11 0 11 2 9 2 9 4 11 4 11 6 13 6 13 4 15 4"></polygon>
        <rect id="Rectangle" fill="#808080" fill-rule="nonzero" x="1" y="9" width="12" height="6"></rect>
        <path d="M9.5,14 L9.5,10.5 L10.5,10.5 C11.1666667,10.5 11.5,10.8333333 11.5,11.5 C11.5,12.1666667 11.1666667,12.5 10.5,12.5 L9.5,12.5" id="Path-2" stroke="#FFFFFF"></path>
        <path d="M8,10.5 L6.5,10.5 C5.83333333,10.5 5.5,10.8333333 5.5,11.5 C5.5,12 7.5,12 7.5,12.5 C7.5,13.1666667 7.16666667,13.5 6.5,13.5 L5,13.5" id="Path-3" stroke="#FFFFFF"></path>
        <polyline id="Path-4" stroke="#FFFFFF" points="2.5 10 2.5 13.5 4 13.5"></polyline>
        <rect id="Rectangle-Copy-2" fill="#D8D8D8" opacity="0" x="0" y="0" width="16" height="16"></rect>
    </g>
</svg>