<?xml version="1.0" encoding="UTF-8"?>
<svg width="16px" height="16px" viewBox="0 0 16 16" version="1.1" xmlns="http://www.w3.org/2000/svg" xmlns:xlink="http://www.w3.org/1999/xlink">
    <!-- Generator: Sketch 61 (89581) - https://sketch.com -->
    <title>16</title>
    <desc>Created with Sketch.</desc>
    <g id="16" stroke="none" stroke-width="1" fill="none" fill-rule="evenodd">
        <path d="M14.52,8.45 L12.8,7.45 L12.22,9.45 C11.7141231,9.49000694 11.2058769,9.49000694 10.7,9.45 L10.13,7.45 L8.4,8.45 C8.05130738,8.18127091 7.73872909,7.86869262 7.47,7.52 L8.24,6.17 L7.41,7 L1,7 L1,15 L15,15 L15,8 C14.8504587,8.16078006 14.6900836,8.31113171 14.52,8.45 Z" id="Path" fill="#D9D9D9" fill-rule="nonzero"></path>
        <polygon id="Path" fill="#D9D9D9" fill-rule="nonzero" points="8 5 6 3 1 3 1 6 7 6"></polygon>
        <polygon id="Path" fill="#FFD580" points="13.22 5.32 16 4.5 13.22 3.68 14.41 1.59 12.32 2.78 11.5 0 10.68 2.78 8.59 1.59 9.78 3.68 7 4.5 9.78 5.32 8.59 7.41 10.68 6.22 11.5 9 12.32 6.22 14.41 7.41"></polygon>
        <path d="M10.5,14 L10.5,10.5 L11.5,10.5 C12.1666667,10.5 12.5,10.8333333 12.5,11.5 C12.5,12.1666667 12.1666667,12.5 11.5,12.5 L10.5,12.5" id="Path-2" stroke="#666666"></path>
        <path d="M9,10.5 L7.5,10.5 C6.83333333,10.5 6.5,10.8333333 6.5,11.5 C6.5,12 8.5,12 8.5,12.5 C8.5,13.1666667 8.16666667,13.5 7.5,13.5 L6,13.5" id="Path-3" stroke="#666666"></path>
        <polyline id="Path-4" stroke="#666666" points="3.5 10 3.5 13.5 5 13.5"></polyline>
        <rect id="Rectangle-Copy-7" fill="#D8D8D8" opacity="0" x="0" y="0" width="16" height="16"></rect>
    </g>
</svg>