<svg id="layer" xmlns="http://www.w3.org/2000/svg" viewBox="0 0 16 16"><defs><style>.cls-1{fill:none;}.cls-2{fill:#d9d9d9;}</style></defs><title>Match Whole Word On</title><rect class="cls-1" width="16" height="16"/><path class="cls-2" d="M4.54,6.52A2,2,0,0,1,5,8v3.92H4.23l-.06-.59A2,2,0,0,1,2.64,12a1.62,1.62,0,0,1-.81-.2,1.44,1.44,0,0,1-.6-.55A1.62,1.62,0,0,1,1,10.39V10a1.77,1.77,0,0,1,.55-1.35,2.34,2.34,0,0,1,1.51-.45h1V7.93a1.2,1.2,0,0,0-.23-.82,1,1,0,0,0-.73-.26A2.27,2.27,0,0,0,2.34,7a3.79,3.79,0,0,0-.73.33L1.3,6.57A3.33,3.33,0,0,1,3.16,6,1.74,1.74,0,0,1,4.54,6.52ZM3.48,11a1.63,1.63,0,0,0,.57-.48V9H3.13a1.41,1.41,0,0,0-.89.24,1.27,1.27,0,0,0-.29.87v.24a.85.85,0,0,0,.22.61.83.83,0,0,0,.62.22A1.52,1.52,0,0,0,3.48,11Z"/><path class="cls-2" d="M9.78,8.14a2,2,0,0,0-.64-.84,1.61,1.61,0,0,0-1-.3A1.43,1.43,0,0,0,7,7.56V4H6v7.89h.73l.07-.46A1.6,1.6,0,0,0,8,12a1.69,1.69,0,0,0,1-.32,2.12,2.12,0,0,0,.71-.87A2.91,2.91,0,0,0,10,9.58V9.39A3.24,3.24,0,0,0,9.78,8.14ZM9.1,9.6a2,2,0,0,1-.31,1.21,1,1,0,0,1-.85.43A1.14,1.14,0,0,1,7,10.75V8.37a1.35,1.35,0,0,1,.4-.45A1.3,1.3,0,0,1,8,7.75a.89.89,0,0,1,.79.41A2.24,2.24,0,0,1,9.1,9.37Z"/><path class="cls-2" d="M12.07,11.71a1.87,1.87,0,0,1-.79-.81A2.49,2.49,0,0,1,11,9.69V9.3a2.3,2.3,0,0,1,.61-1.68A2.28,2.28,0,0,1,13.32,7a2.63,2.63,0,0,1,.91.15,2.22,2.22,0,0,1,.77.47l-.49.49A1.93,1.93,0,0,0,14,7.8a2.08,2.08,0,0,0-.63-.09,1.28,1.28,0,0,0-1,.4A1.76,1.76,0,0,0,12,9.28v.43a1.76,1.76,0,0,0,.34,1.17,1.27,1.27,0,0,0,1,.41,1.75,1.75,0,0,0,.62-.11,4.47,4.47,0,0,0,.58-.29l.42.56a2.44,2.44,0,0,1-.75.4,2.77,2.77,0,0,1-.89.15A2.53,2.53,0,0,1,12.07,11.71Z"/></svg>