<svg id="layer" xmlns="http://www.w3.org/2000/svg" viewBox="0 0 16 16"><defs><style>.cls-1{fill:none;}.cls-2{fill:#d9d9d9;}</style></defs><title>Match Case On</title><rect class="cls-1" width="16" height="16"/><rect class="cls-1" width="16" height="16"/><path class="cls-2" d="M3,10l-.93,3H1L4.23,3H5.68L9,13H7.9L7,10Zm.3-1H6.6L4.94,3.79Z"/><path class="cls-2" d="M14.43,5.68A2.88,2.88,0,0,1,15,7.57v5.26h-.75l-.06-.89A2.53,2.53,0,0,1,12.08,13a2.1,2.1,0,0,1-1-.26,2,2,0,0,1-.76-.75A2.17,2.17,0,0,1,10,10.87v-.48a2.13,2.13,0,0,1,.7-1.67,2.85,2.85,0,0,1,1.9-.6H14V7.54a1.67,1.67,0,0,0-.27-1.18A1.35,1.35,0,0,0,12.65,6a3.11,3.11,0,0,0-1,.07,6,6,0,0,0-1,.54l-.29-.8A3.86,3.86,0,0,1,12.71,5,2.15,2.15,0,0,1,14.43,5.68ZM14,11V9H12.66a1.71,1.71,0,0,0-1.22.34A1.39,1.39,0,0,0,11,10.47v.32a1.21,1.21,0,0,0,.36.93,1.14,1.14,0,0,0,.88.37A2,2,0,0,0,14,11Z"/></svg>