<svg id="layer" xmlns="http://www.w3.org/2000/svg" viewBox="0 0 16 16"><defs><style>.cls-1{fill:#d9d9d9;}.cls-2{fill:#fff;}.cls-3{fill:none;}</style></defs><title>Open Project</title><path class="cls-1" d="M6.46,13.3V14H4V10h.76v3.3Z"/><path class="cls-1" d="M7,13.5l.36-.41.34.2A.93.93,0,0,0,8,13.4a1.75,1.75,0,0,0,.43,0,1.13,1.13,0,0,0,.63-.16.48.48,0,0,0,.21-.38v-.07a.42.42,0,0,0-.13-.33,1.18,1.18,0,0,0-.48-.23l-.58-.19c-.62-.2-.94-.52-.94-1V11a.81.81,0,0,1,.17-.49,1.18,1.18,0,0,1,.49-.37A2,2,0,0,1,8.58,10a2.13,2.13,0,0,1,.78.13,2,2,0,0,1,.62.37l-.35.38a2.08,2.08,0,0,0-.5-.27,1.39,1.39,0,0,0-.52-.08.9.9,0,0,0-.54.13.38.38,0,0,0-.19.32v.09a.34.34,0,0,0,.15.27,1.35,1.35,0,0,0,.48.22l.53.17a1.77,1.77,0,0,1,.71.38.86.86,0,0,1,.25.66v.14a.87.87,0,0,1-.19.57,1.2,1.2,0,0,1-.54.38,1.94,1.94,0,0,1-.78.14A2.16,2.16,0,0,1,7,13.5Z"/><path class="cls-1" d="M13.58,10.3a1,1,0,0,1,.42.84v.33a1,1,0,0,1-.45.85,2.07,2.07,0,0,1-1.21.31h-.55V14H11V10h1.44A1.93,1.93,0,0,1,13.58,10.3Zm-.37.88a.54.54,0,0,0-.21-.47.94.94,0,0,0-.59-.16h-.62v1.53h.52c.6,0,.9-.22.9-.64Z"/><path class="cls-2" d="M13.83,2.79a3.62,3.62,0,0,0-2.17-1.55A4.84,4.84,0,0,0,8.2,2.1l.6.8a3.83,3.83,0,0,1,2.65-.68,2.55,2.55,0,0,1,1.47,1l-.9.43,2.45,1.7.25-3Z"/><polygon class="cls-1" points="4 6 11 6 11 4 7.33 4 6 2 0 2 0 12.4 4 6"/><path class="cls-1" d="M5.76,9v3.3h.85a1.85,1.85,0,0,1-.45-1.19V11a1.84,1.84,0,0,1,.36-1.08,2.16,2.16,0,0,1,.92-.7A2.93,2.93,0,0,1,8.58,9a3.15,3.15,0,0,1,1.13.19l.29.14V9h2.44a3.24,3.24,0,0,1,.79.09L14,7.75V7H4.55L3.3,9Z"/><polygon class="cls-1" points="3 9.49 0.8 13 3 13 3 9.49"/><rect class="cls-3" width="16" height="16"/></svg>