<?xml version="1.0" encoding="UTF-8"?>
<svg width="16px" height="16px" viewBox="0 0 16 16" version="1.1" xmlns="http://www.w3.org/2000/svg" xmlns:xlink="http://www.w3.org/1999/xlink">
    <!-- Generator: Sketch 61 (89581) - https://sketch.com -->
    <title>16</title>
    <desc>Created with Sketch.</desc>
    <g id="16" stroke="none" stroke-width="1" fill="none" fill-rule="evenodd">
        <path d="M13.83,2.5931305 C13.3302584,1.81915443 12.5542179,1.26483982 11.66,1.0431305 C10.4392526,0.879090561 9.20188811,1.18664359 8.2,1.9031305 L8.8,2.7031305 C9.56949134,2.15794222 10.5130738,1.9158154 11.45,2.0231305 C12.0440981,2.16932186 12.5658315,2.52424253 12.92,3.0231305 L12.02,3.4531305 L14.47,5.1531305 L14.72,2.1531305 L13.83,2.5931305 Z" id="Path" fill="#F3F3F3" fill-rule="nonzero"></path>
        <polygon id="Path" fill="#D9D9D9" fill-rule="nonzero" points="3 6 11 6 11 4 7.33 4 6 2 1 2 1 12"></polygon>
        <polygon id="Path-18" fill="#D8D8D8" points="4 7 1 15 13 15 16 7"></polygon>
        <path d="M11.5,13 L11.5,9.5 L12.5,9.5 C13.1666667,9.5 13.5,9.83333333 13.5,10.5 C13.5,11.1666667 13.1666667,11.5 12.5,11.5 L11.5,11.5" id="Path-2" stroke="#666666"></path>
        <path d="M10,9.5 L8.5,9.5 C7.83333333,9.5 7.5,9.83333333 7.5,10.5 C7.5,11 9.5,11 9.5,11.5 C9.5,12.1666667 9.16666667,12.5 8.5,12.5 L7,12.5" id="Path-3" stroke="#666666"></path>
        <polyline id="Path-4" stroke="#666666" points="4.5 9 4.5 12.5 6 12.5"></polyline>
        <rect id="Rectangle-Copy-8" fill="#D8D8D8" opacity="0" x="0" y="0" width="16" height="16"></rect>
    </g>
</svg>