<?xml version="1.0" encoding="UTF-8"?>
<svg width="16px" height="16px" viewBox="0 0 16 16" version="1.1" xmlns="http://www.w3.org/2000/svg" xmlns:xlink="http://www.w3.org/1999/xlink">
    <!-- Generator: Sketch 61 (89581) - https://sketch.com -->
    <title>Artboard</title>
    <desc>Created with Sketch.</desc>
    <g id="Artboard" stroke="none" stroke-width="1" fill="none" fill-rule="evenodd">
        <polygon id="Path-6" fill="#D9D9D9" points="8 7 9 7 9 11 15 11 15 7 16 7 16 15 15 15 15 12 9 12 9 15 8 14"></polygon>
        <polygon id="Path-7" fill="#F3F3F3" points="10 7 14 7 14 10 10 10"></polygon>
        <polygon id="Path-8" fill="#F3F3F3" points="10 13 14 13 14 15 12 15 12 14 11 14 11 15 10 15"></polygon>
        <polygon id="Path" fill="#D9D9D9" points="14 6 7 6 7 13 0 13 0 4 5.5 4 6.5 3 14 3"></polygon>
        <polygon id="Path-5" fill="#D9D9D9" points="0 3 0 1 5 1 6 2 5 3"></polygon>
    </g>
</svg>