<?xml version="1.0" encoding="UTF-8"?>
<svg width="16px" height="16px" viewBox="0 0 16 16" version="1.1" xmlns="http://www.w3.org/2000/svg" xmlns:xlink="http://www.w3.org/1999/xlink">
    <!-- Generator: Sketch 61 (89581) - https://sketch.com -->
    <title>16</title>
    <desc>Created with Sketch.</desc>
    <g id="16" stroke="none" stroke-width="1" fill="none" fill-rule="evenodd">
        <path d="M1,6 L2.13847563,6.71246096 L2.138,6.711 L3.51982422,7.57481462 C3.51979278,7.57515003 3.51976138,7.57548546 3.51973002,7.5758209 L5,8.5 L3.69551126,9.31609921 C4.25836292,11.1592816 5.97261067,12.5 8,12.5 C9.83653204,12.5 11.4161053,11.3998287 12.1156166,9.82258944 L13.397539,10.623535 C12.4241073,12.6225035 10.3729194,14 8,14 C5.43714772,14 3.24959221,12.3931635 2.38981748,10.1319746 L1,11 L1,6 Z M8,2 C10.5632288,2 12.7510506,3.6073087 13.6105614,5.86902218 L15,5 L15,10 L13.8613066,9.28853444 L11,7.5 L12.3047935,6.68489913 C11.742256,4.84120259 10.0277553,3.5 8,3.5 C6.16319764,3.5 4.58342969,4.60049514 3.88407453,6.17810705 L2.60258491,5.37621062 C3.57606673,3.37737968 5.62718123,2 8,2 Z" id="Combined-Shape" fill="#62D987"></path>
        <rect id="Rectangle-Copy-6" fill="#D8D8D8" opacity="0" x="0" y="0" width="16" height="16"></rect>
    </g>
</svg>