<svg id="layer" xmlns="http://www.w3.org/2000/svg" viewBox="0 0 16 16"><defs><style>.cls-1{fill:none;}.cls-2{fill:#d9d9d9;}.cls-3{fill:#f3f3f3;}</style></defs><title>Save Project</title><rect class="cls-1" width="16" height="16"/><polygon class="cls-2" points="7 3 5 1 0 1 0 3 0 4 6 4 7 3"/><polygon class="cls-2" points="6 6 14 6 14 3 8.41 3 6.41 5 0 5 0 13 6 13 6 6"/><rect class="cls-3" x="9" y="7" width="4" height="3"/><polygon class="cls-3" points="9 13 9 15 10 15 10 14 11 14 11 15 13 15 13 13 9 13"/><polygon class="cls-2" points="14 7 14 11 8 11 8 7 7 7 7 14 8 15 8 12 14 12 14 15 15 15 15 7 14 7"/></svg>